<svg width="40" height="41" viewBox="0 0 40 41" fill="none" xmlns="http://www.w3.org/2000/svg">
<rect y="0.625" width="40" height="40" rx="20" fill="white"/>
<path fill-rule="evenodd" clip-rule="evenodd" d="M19.9995 26.4887C20.3654 26.4887 20.7199 26.4831 21.0623 26.4648C21.3077 26.45 21.5351 26.6471 21.5497 26.901C21.563 27.1566 21.3674 27.3743 21.1123 27.3876C20.7546 27.4069 20.384 27.4137 19.9995 27.4137C18.446 27.4137 16.8717 27.2637 15.3192 26.9674C14.655 26.8365 14.1745 26.2515 14.1745 25.5756V24.9637C14.1745 22.8732 15.5338 21.0965 17.4152 20.4635L17.5961 20.4026L17.443 20.2885C16.3913 19.5045 15.7064 18.256 15.7064 16.8475C15.7064 14.4802 17.6323 12.5537 19.9995 12.5537C22.3668 12.5537 24.2926 14.4802 24.2926 16.8475C24.2926 18.2573 23.6071 19.5069 22.5536 20.2903L22.4004 20.4042L22.5813 20.4653C23.1704 20.6644 23.7199 20.9747 24.1932 21.3923C24.3846 21.5621 24.4029 21.8541 24.2339 22.0457C24.0647 22.2369 23.7729 22.2558 23.5807 22.0862C22.8892 21.475 21.9987 21.1393 21.0744 21.1393C20.3564 21.14 19.6432 21.14 18.9245 21.1393C16.8155 21.1393 15.0995 22.8554 15.0995 24.9643V25.5762C15.0995 25.8111 15.2661 26.0144 15.4958 26.0601C16.9881 26.345 18.5044 26.4887 19.9995 26.4887ZM19.9814 20.2137L20.0176 20.2137C21.8663 20.2034 23.3676 18.6982 23.3676 16.8475C23.3676 14.9904 21.8566 13.4793 19.9995 13.4793C18.1424 13.4793 16.6314 14.9897 16.6314 16.8475C16.6314 18.6982 18.1327 20.2034 19.9814 20.2137Z" fill="black"/>
<path d="M14.2116 14.2517C14.4485 14.1573 14.7174 14.2741 14.8116 14.5124C14.9051 14.7498 14.7883 15.0185 14.551 15.112C13.5635 15.5021 12.9252 16.4395 12.9252 17.5006C12.9252 18.557 13.5871 19.521 14.5726 19.9003C14.7697 19.9757 14.8905 20.1762 14.8653 20.3864C14.8407 20.5959 14.6763 20.7625 14.4665 20.7902C13.7395 20.8859 13.0519 21.3088 12.5471 21.8832C12.0424 22.4577 11.7121 23.1932 11.7121 23.925V24.4069C11.7121 24.5448 11.8091 24.6694 11.9453 24.6967C12.045 24.717 12.1471 24.7346 12.2492 24.7522L12.3075 24.7623L12.5321 24.8016C12.783 24.8468 12.9502 25.0871 12.9056 25.3398C12.8649 25.5627 12.67 25.72 12.4509 25.72C12.4234 25.72 12.3956 25.7173 12.3676 25.7121L12.1505 25.6739C12.0163 25.6514 11.887 25.629 11.7639 25.6037C11.1995 25.4931 10.7871 24.9897 10.7871 24.4075V23.9256C10.7871 22.4148 11.7784 20.9489 13.1332 20.2572L13.262 20.1914L13.155 20.0941C12.4364 19.4405 11.9996 18.5002 11.9996 17.5006C11.9996 16.0567 12.8679 14.7816 14.2116 14.2517Z" fill="black"/>
<path d="M25.4066 14.5122C25.5008 14.2739 25.7697 14.1571 26.0066 14.2515C27.3503 14.7814 28.2186 16.0565 28.2186 17.5004C28.2186 18.5 27.7819 19.4403 27.0632 20.094L26.9562 20.1912L27.085 20.257C27.7586 20.6009 28.3424 21.1363 28.7591 21.7734C28.8932 21.9784 28.8155 22.2479 28.6054 22.3739C28.3748 22.5123 28.0767 22.4239 27.9226 22.2034C27.8449 22.0922 27.7607 21.985 27.6711 21.883C27.1663 21.3086 26.4787 20.8857 25.7517 20.79C25.5419 20.7623 25.3776 20.5957 25.3529 20.3862C25.3277 20.176 25.4485 19.9755 25.6456 19.9001C26.6311 19.5208 27.293 18.5568 27.293 17.5004C27.293 16.4393 26.6547 15.5019 25.6672 15.1118C25.43 15.0183 25.3131 14.7496 25.4066 14.5122Z" fill="black"/>
<path fill-rule="evenodd" clip-rule="evenodd" d="M28.2673 23.9382C28.8773 24.5476 29.2124 25.3577 29.2124 26.2194C29.2124 27.0816 28.8766 27.8918 28.2673 28.5012C27.6579 29.1105 26.8483 29.4462 25.9861 29.4462C25.1239 29.4462 24.3137 29.1105 23.7043 28.5012C23.095 27.8918 22.7599 27.0816 22.7599 26.2194C22.7599 25.3578 23.0956 24.5476 23.7049 23.9382C24.9628 22.681 27.0095 22.681 28.2673 23.9382ZM27.6143 24.593C27.1654 24.1447 26.5759 23.92 25.9867 23.92C25.3977 23.92 24.8081 24.1441 24.3592 24.593C23.462 25.4902 23.462 26.9491 24.3591 27.8463C25.2294 28.7179 26.7428 28.7179 27.6131 27.8463C28.5109 26.9491 28.5108 25.4895 27.6143 24.593Z" fill="black"/>
<path d="M26.4485 25.2742V25.7573H26.9322C27.1876 25.7573 27.3947 25.9644 27.3947 26.2198C27.3947 26.4752 27.1876 26.6823 26.9322 26.6823H26.4485V27.1655C26.4485 27.4209 26.2414 27.628 25.986 27.628C25.7306 27.628 25.5235 27.4209 25.5235 27.1655V26.6823H25.0397C24.7843 26.6823 24.5772 26.4752 24.5772 26.2198C24.5772 25.9644 24.7843 25.7573 25.0397 25.7573H25.5235V25.2742C25.5235 25.0188 25.7306 24.8117 25.986 24.8117C26.2414 24.8117 26.4485 25.0188 26.4485 25.2742Z" fill="black"/>
</svg>
