<svg width="41" height="40" viewBox="0 0 41 40" fill="none" xmlns="http://www.w3.org/2000/svg">
<rect x="0.5" width="40" height="40" rx="20" fill="white"/>
<g clip-path="url(#clip0_767_76031)">
<path d="M20.5 22.9688C20.1769 22.9688 19.9141 22.7059 19.9141 22.3829C19.9141 22.1373 20.0689 21.9159 20.2995 21.8319C20.6004 21.7223 20.9508 21.871 21.2606 22.2399C21.4688 22.4877 21.8384 22.5199 22.0861 22.3118C22.3339 22.1036 22.3661 21.734 22.158 21.4862C21.8412 21.1091 21.4725 20.8498 21.0859 20.7197V20.0391C21.0859 19.7155 20.8236 19.4531 20.5 19.4531C20.1764 19.4531 19.914 19.7155 19.914 20.0391V20.7255C19.9088 20.7273 19.9036 20.7289 19.8984 20.7308C19.2068 20.9827 18.7422 21.6466 18.7422 22.3828C18.7422 23.3521 19.5307 24.1406 20.5 24.1406C20.8231 24.1406 21.0859 24.4035 21.0859 24.7266C21.0859 24.9626 20.9455 25.1745 20.7281 25.2666C20.4658 25.3777 20.1517 25.2829 19.8665 25.0065C19.6341 24.7813 19.2631 24.7872 19.038 25.0196C18.8128 25.252 18.8187 25.623 19.0511 25.8482C19.3156 26.1045 19.6097 26.2855 19.9141 26.3877V27.0704C19.9141 27.3939 20.1764 27.6563 20.5 27.6563C20.8236 27.6563 21.0859 27.3939 21.0859 27.0704V26.384C21.1192 26.3721 21.1523 26.3596 21.1852 26.3457C21.8368 26.0697 22.2578 25.4342 22.2578 24.7266C22.2578 23.7573 21.4693 22.9688 20.5 22.9688Z" fill="black"/>
<path d="M30.0513 24.7261C30.3302 24.4149 30.5 24.004 30.5 23.5542C30.5 22.585 29.7114 21.7964 28.7422 21.7964H26.7016C26.5018 21.0923 26.1848 20.437 25.7734 19.8528V15.5157L25.9451 15.6873C26.0595 15.8017 26.2095 15.8589 26.3594 15.8589C26.5093 15.8589 26.6593 15.8017 26.7737 15.6873C27.0025 15.4585 27.0025 15.0875 26.7737 14.8587L25.6018 13.6868C25.375 13.4601 25.0028 13.4571 24.7732 13.6868L23.6013 14.8587C23.3725 15.0875 23.3725 15.4585 23.6013 15.6873C23.8301 15.9161 24.2011 15.9161 24.4299 15.6873L24.6016 15.5157V18.586C23.6279 17.7808 22.4144 17.2561 21.0859 17.1358V12.0001L21.2576 12.1717C21.4864 12.4005 21.8574 12.4005 22.0862 12.1717C22.315 11.9429 22.315 11.5719 22.0862 11.3431L20.9143 10.1712C20.6895 9.94588 20.3169 9.94002 20.0857 10.1712L18.9138 11.3431C18.685 11.5719 18.685 11.9429 18.9138 12.1717C19.1426 12.4005 19.5136 12.4005 19.7425 12.1717L19.9141 12.0001V17.1358C18.5856 17.2561 17.3721 17.7808 16.3984 18.586V15.5157L16.5701 15.6873C16.7989 15.9161 17.1699 15.9161 17.3987 15.6873C17.6275 15.4585 17.6275 15.0875 17.3987 14.8587L16.2268 13.6868C15.9987 13.4583 15.6258 13.4592 15.3982 13.6868L14.2263 14.8587C13.9975 15.0875 13.9975 15.4585 14.2263 15.6873C14.4551 15.9161 14.8261 15.9161 15.055 15.6873L15.2266 15.5157V19.8528C14.8152 20.437 14.4982 21.0923 14.2984 21.7964H12.2578C11.2886 21.7964 10.5 22.585 10.5 23.5542C10.5 24.004 10.6698 24.4149 10.9487 24.7261C10.6698 25.0373 10.5 25.4482 10.5 25.898C10.5 26.3479 10.6701 26.7586 10.949 27.0699C10.6701 27.3811 10.5 27.7919 10.5 28.2417C10.5 29.211 11.2886 29.9995 12.2578 29.9995H16.9844C17.4246 29.9995 17.8352 29.8392 18.1517 29.5566C18.8797 29.8424 19.6718 29.9995 20.5 29.9995C21.3282 29.9995 22.1203 29.8424 22.8483 29.5566C23.1648 29.8392 23.5754 29.9995 24.0156 29.9995H28.7422C29.7114 29.9995 30.5 29.211 30.5 28.2417C30.5 27.7919 30.3299 27.3811 30.051 27.0699C30.33 26.7586 30.5 26.3479 30.5 25.898C30.5 25.4482 30.3302 25.0373 30.0513 24.7261ZM12.2578 22.9644H14.0816C14.0641 23.1574 14.0547 23.3567 14.0547 23.5542C14.0547 23.7518 14.0641 23.9471 14.0816 24.1402H12.2578C11.9347 24.1402 11.6719 23.8773 11.6719 23.5542C11.6719 23.2311 11.9347 22.9644 12.2578 22.9644ZM12.2578 25.312H14.2984C14.4143 25.7205 14.5696 26.1126 14.7598 26.4839H12.2578C11.9347 26.4839 11.6719 26.2211 11.6719 25.898C11.6719 25.5749 11.9347 25.312 12.2578 25.312ZM12.2578 28.8277C11.9347 28.8277 11.6719 28.5648 11.6719 28.2417C11.6719 27.9186 11.9347 27.6558 12.2578 27.6558H15.5318C15.8995 28.1004 16.3258 28.4949 16.7985 28.8277H12.2578ZM20.5 28.8277C17.5922 28.8277 15.2266 26.462 15.2266 23.5542C15.2266 20.6465 17.5922 18.2808 20.5 18.2808C23.4078 18.2808 25.7734 20.6465 25.7734 23.5542C25.7734 26.462 23.4078 28.8277 20.5 28.8277ZM28.7422 28.8277H24.2015C24.6742 28.4949 25.1005 28.1004 25.4682 27.6558H28.7422C29.0653 27.6558 29.3281 27.9186 29.3281 28.2417C29.3281 28.5648 29.0653 28.8277 28.7422 28.8277ZM28.7422 26.4839H26.2402C26.4304 26.1126 26.5857 25.7205 26.7016 25.312H28.7422C29.0653 25.312 29.3281 25.5749 29.3281 25.898C29.3281 26.2211 29.0653 26.4839 28.7422 26.4839ZM28.7422 24.1402H26.9184C26.9359 23.9471 26.9453 23.7518 26.9453 23.5542C26.9453 23.3567 26.9359 23.1613 26.9184 22.9683H28.7422C29.0653 22.9683 29.3281 23.2311 29.3281 23.5542C29.3281 23.8773 29.0653 24.1402 28.7422 24.1402Z" fill="black"/>
</g>
<defs>
<clipPath id="clip0_767_76031">
<rect width="20" height="20" fill="white" transform="translate(10.5 10)"/>
</clipPath>
</defs>
</svg>
