<svg width="40" height="41" viewBox="0 0 40 41" fill="none" xmlns="http://www.w3.org/2000/svg">
<rect y="0.875" width="40" height="40" rx="20" fill="white"/>
<g clip-path="url(#clip0_755_75096)">
<path d="M20.0798 19.2753C21.5998 19.2753 22.7998 17.4353 22.7998 15.8753C22.7998 14.3553 21.5598 13.1553 20.0798 13.1553C18.5998 13.1553 17.3598 14.3953 17.3598 15.8753C17.3198 17.4353 18.5598 19.2753 20.0798 19.2753ZM20.0798 13.9553C21.1598 13.9553 21.9998 14.8353 21.9998 15.8753C21.9998 16.9953 21.0798 18.4753 20.0798 18.4753C19.0798 18.4753 18.1598 16.9953 18.1598 15.8753C18.1198 14.8353 18.9998 13.9553 20.0798 13.9553Z" fill="black"/>
<path d="M24.6801 20.6352C25.8001 20.6352 26.7201 19.2352 26.7201 18.1152C26.7201 16.9952 25.8001 16.0752 24.6801 16.0752C23.5601 16.0752 22.6401 16.9952 22.6401 18.1152C22.6401 19.2352 23.5601 20.6352 24.6801 20.6352ZM24.6801 16.8352C25.3601 16.8352 25.9201 17.3952 25.9201 18.0752C25.9201 18.7952 25.2801 19.7952 24.6801 19.7952C24.0801 19.7952 23.4401 18.7952 23.4401 18.0752C23.4401 17.3952 24.0001 16.8352 24.6801 16.8352Z" fill="black"/>
<path d="M28 24.9549V23.7549C27.96 22.2349 26.72 20.9549 25.16 20.9549H24.16C23.96 20.9549 23.72 20.9949 23.52 21.0349C23.478 21.0441 23.44 21.0749 23.44 21.0749C22.76 20.3149 21.76 19.7949 20.72 19.7949H19.32C18.28 19.7949 17.3316 20.2217 16.6116 21.0217C16.6116 21.0217 16.3864 20.9185 15.88 20.9149H14.88C14.12 20.9149 13.4 21.1949 12.88 21.7549C12.36 22.2749 12.08 22.9549 12.04 23.6749V24.9149C12.04 25.1549 12.2 25.3149 12.44 25.3149H15.48V25.7549C15.48 25.9949 15.64 26.1549 15.88 26.1549H24.12C24.36 26.1549 24.52 25.9949 24.52 25.7549V25.3149H27.6C27.8 25.3549 28 25.1949 28 24.9549ZM12.8 24.5549V23.7149C12.84 22.6349 13.72 21.7549 14.84 21.7549H15.84H16.04C15.68 22.3549 15.48 23.0749 15.44 23.8349V24.5549H12.8ZM23.72 25.3949H16.28V24.9549V23.8749C16.32 22.9949 16.64 22.1949 17.16 21.5949C17.72 20.9549 18.48 20.6349 19.28 20.6349H20.68C22.32 20.6349 23.68 22.1149 23.72 23.9549V25.3949ZM27.2 24.5549H24.56V23.9149C24.56 23.1149 24.32 22.3949 23.96 21.7549H24.2H25.2C26.32 21.7549 27.2 22.6349 27.24 23.7549V24.5549H27.2Z" fill="black"/>
<path d="M15.3999 16.0352C14.2799 16.0352 13.3599 16.9552 13.3599 18.0752C13.3599 19.2352 14.2799 20.5952 15.3999 20.5952C16.5199 20.5952 17.4399 19.1952 17.4399 18.0752C17.4399 16.9552 16.5199 16.0352 15.3999 16.0352ZM15.3999 19.8352C14.7599 19.8352 14.1599 18.8352 14.1599 18.1152C14.1599 17.4352 14.7199 16.8752 15.3999 16.8752C16.0799 16.8752 16.6399 17.4352 16.6399 18.1152C16.6399 18.8352 16.0399 19.8352 15.3999 19.8352Z" fill="black"/>
<path d="M12.8399 13.0754C12.5999 13.0754 12.4399 13.2354 12.4399 13.4754V14.9954C12.4399 15.2354 12.5999 15.3954 12.8399 15.3954H14.3599C14.5999 15.3954 14.7599 15.2354 14.7599 14.9954C14.7599 14.7554 14.5999 14.5954 14.3599 14.5954H13.7999C15.4399 12.9954 17.6399 12.0754 19.9599 12.0754C22.3199 12.0754 24.5199 12.9954 26.1999 14.6354C26.2799 14.7154 26.3999 14.7554 26.4799 14.7554C26.5599 14.7554 26.6799 14.7154 26.7599 14.6354C26.9199 14.4754 26.9199 14.2354 26.7599 14.0754C24.9599 12.2754 22.5199 11.2754 19.9599 11.2754C17.4399 11.2754 15.0399 12.2354 13.2399 13.9954V13.4754C13.2399 13.2754 13.0799 13.0754 12.8399 13.0754Z" fill="black"/>
<path d="M27.12 28.6755C27.36 28.6755 27.52 28.5155 27.52 28.2755V26.7555C27.52 26.5155 27.36 26.3555 27.12 26.3555H25.6C25.36 26.3555 25.2 26.5155 25.2 26.7555C25.2 26.9955 25.36 27.1555 25.6 27.1555H26.12C24.48 28.7955 22.28 29.6755 19.96 29.6755C17.6 29.6755 15.4 28.7555 13.72 27.1155C13.56 26.9555 13.32 26.9555 13.16 27.1155C13 27.2755 13 27.5155 13.16 27.6755C14.96 29.4755 17.4 30.4755 19.96 30.4755C22.52 30.4755 24.92 29.4755 26.72 27.6755V28.2355C26.72 28.4755 26.88 28.6755 27.12 28.6755Z" fill="black"/>
</g>
<defs>
<clipPath id="clip0_755_75096">
<rect width="20" height="20" fill="white" transform="translate(10 10.875)"/>
</clipPath>
</defs>
</svg>
