<svg width="40" height="40" viewBox="0 0 40 40" fill="none" xmlns="http://www.w3.org/2000/svg">
<rect width="40" height="40" rx="20" fill="white"/>
<g clip-path="url(#clip0_754_207262)">
<path d="M11 30H29C29.5513 30 30 29.5513 30 29V11C30 10.4487 29.5513 10 29 10H11C10.4487 10 10 10.4487 10 11V29C10 29.5513 10.4487 30 11 30ZM29 29.3333H11C10.816 29.3333 10.6667 29.184 10.6667 29V28.272C10.7713 28.3093 10.8827 28.3333 11 28.3333H29C29.1173 28.3333 29.2287 28.3093 29.3333 28.272V29C29.3333 29.184 29.184 29.3333 29 29.3333ZM10.6667 11C10.6667 10.8163 10.816 10.6667 11 10.6667H29C29.184 10.6667 29.3333 10.8163 29.3333 11V22.3333C29.3333 22.5173 29.184 22.6667 29 22.6667H11C10.816 22.6667 10.6667 22.5173 10.6667 22.3333V11ZM10.6667 23.272C10.7713 23.3093 10.8827 23.3333 11 23.3333H29C29.1173 23.3333 29.2287 23.3093 29.3333 23.272V24C29.3333 24.184 29.184 24.3333 29 24.3333H11C10.816 24.3333 10.6667 24.184 10.6667 24V23.272ZM10.6667 24.9387C10.7713 24.976 10.8827 25 11 25H29C29.1173 25 29.2287 24.976 29.3333 24.9387V25.6667C29.3333 25.8507 29.184 26 29 26H11C10.816 26 10.6667 25.8507 10.6667 25.6667V24.9387ZM10.6667 26.6053C10.7713 26.6427 10.8827 26.6667 11 26.6667H29C29.1173 26.6667 29.2287 26.6427 29.3333 26.6053V27.3333C29.3333 27.5173 29.184 27.6667 29 27.6667H11C10.816 27.6667 10.6667 27.5173 10.6667 27.3333V26.6053Z" fill="black"/>
<path d="M11.6258 19.6843C12.6855 19.816 13.5178 20.6483 13.6495 21.708C13.6702 21.875 13.8118 22.0003 13.9802 22.0003H26.0198C26.1882 22.0003 26.3298 21.875 26.3505 21.708C26.4825 20.6483 27.3148 19.816 28.3742 19.6843C28.5412 19.6637 28.6665 19.5217 28.6665 19.3537V13.9803C28.6665 13.8123 28.5412 13.6703 28.3742 13.6497C27.3145 13.518 26.4822 12.6857 26.3505 11.626C26.3298 11.4593 26.1882 11.334 26.0198 11.334H13.9802C13.8118 11.334 13.6702 11.4593 13.6495 11.626C13.5175 12.686 12.6852 13.518 11.6258 13.6497C11.4588 13.6703 11.3335 13.8123 11.3335 13.9803V19.3537C11.3335 19.5217 11.4588 19.6637 11.6258 19.6843ZM12.0002 14.26C13.1262 14.0063 14.0062 13.1263 14.2602 12.0003H25.7398C25.9942 13.1263 26.8738 14.0063 27.9998 14.26V19.0737C26.8738 19.3273 25.9938 20.2073 25.7398 21.3333H14.2602C14.0058 20.2073 13.1262 19.3273 12.0002 19.0737V14.26Z" fill="black"/>
<path d="M15.6667 16.6663C15.6667 15.931 15.0687 15.333 14.3333 15.333C13.598 15.333 13 15.931 13 16.6663C13 17.4017 13.598 17.9997 14.3333 17.9997C15.0687 17.9997 15.6667 17.4017 15.6667 16.6663ZM13.6667 16.6663C13.6667 16.2987 13.9657 15.9997 14.3333 15.9997C14.701 15.9997 15 16.2987 15 16.6663C15 17.034 14.701 17.333 14.3333 17.333C13.9657 17.333 13.6667 17.034 13.6667 16.6663Z" fill="black"/>
<path d="M25.6668 17.9997C26.4022 17.9997 27.0002 17.4017 27.0002 16.6663C27.0002 15.931 26.4022 15.333 25.6668 15.333C24.9315 15.333 24.3335 15.931 24.3335 16.6663C24.3335 17.4017 24.9315 17.9997 25.6668 17.9997ZM25.6668 15.9997C26.0345 15.9997 26.3335 16.2987 26.3335 16.6663C26.3335 17.034 26.0345 17.333 25.6668 17.333C25.2992 17.333 25.0002 17.034 25.0002 16.6663C25.0002 16.2987 25.2992 15.9997 25.6668 15.9997Z" fill="black"/>
<path d="M20 19.667C21.6543 19.667 23 18.321 23 16.667C23 15.013 21.6543 13.667 20 13.667C18.3457 13.667 17 15.013 17 16.667C17 18.321 18.3457 19.667 20 19.667ZM20 14.3337C21.2863 14.3337 22.3333 15.3803 22.3333 16.667C22.3333 17.9537 21.2863 19.0003 20 19.0003C18.7137 19.0003 17.6667 17.9537 17.6667 16.667C17.6667 15.3803 18.7137 14.3337 20 14.3337Z" fill="black"/>
</g>
<defs>
<clipPath id="clip0_754_207262">
<rect width="20" height="20" fill="white" transform="translate(10 10)"/>
</clipPath>
</defs>
</svg>
