<svg width="40" height="41" viewBox="0 0 40 41" fill="none" xmlns="http://www.w3.org/2000/svg">
<rect y="0.375" width="40" height="40" rx="20" fill="white"/>
<path d="M26.25 10.3125H13.75C12.8884 10.3125 12.1875 11.0134 12.1875 11.875V28.125C12.1875 28.9866 12.8884 29.6875 13.75 29.6875H26.25C27.1116 29.6875 27.8125 28.9866 27.8125 28.125V11.875C27.8125 11.0134 27.1116 10.3125 26.25 10.3125ZM27.1875 28.125C27.1875 28.6419 26.7669 29.0625 26.25 29.0625H13.75C13.2331 29.0625 12.8125 28.6419 12.8125 28.125V11.875C12.8125 11.3581 13.2331 10.9375 13.75 10.9375H26.25C26.7669 10.9375 27.1875 11.3581 27.1875 11.875V28.125Z" fill="black"/>
<path d="M26.25 11.5625H13.75C13.5775 11.5625 13.4375 11.7025 13.4375 11.875V26.875C13.4375 27.0475 13.5775 27.1875 13.75 27.1875H26.25C26.4225 27.1875 26.5625 27.0475 26.5625 26.875V11.875C26.5625 11.7025 26.4225 11.5625 26.25 11.5625ZM25.9375 26.5625H14.0625V12.1875H25.9375V26.5625Z" fill="black"/>
<path d="M18.4375 27.8125H21.5625V28.4375H18.4375V27.8125Z" fill="black"/>
<path d="M15.3125 14.0625H15.9375V13.4375H16.5625V14.0625H17.1875V13.4375H17.8125V14.0625H18.4375V13.4375H19.0625V14.0625H19.6875V13.4375H20.3125V14.0625H20.9375V13.4375H21.5625V14.0625H22.1875V13.4375H22.8125V14.0625H23.4375V13.4375H24.0625V14.0625H24.6875V13.4375H25.3125V12.8125H14.6875V13.4375H15.3125V14.0625Z" fill="black"/>
<path d="M25.3125 25.3125H24.6875V24.6875H24.0625V25.3125H23.4375V24.6875H22.8125V25.3125H22.1875V24.6875H21.5625V25.3125H20.9375V24.6875H20.3125V25.3125H19.6875V24.6875H19.0625V25.3125H18.4375V24.6875H17.8125V25.3125H17.1875V24.6875H16.5625V25.3125H15.9375V24.6875H15.3125V25.3125H14.6875V25.9375H25.3125V25.3125Z" fill="black"/>
<path d="M16.5625 24.0625V23.4375H16.875C17.0475 23.4375 17.1875 23.2975 17.1875 23.125V19.375C17.1875 19.2025 17.0475 19.0625 16.875 19.0625H16.5625V18.4375H15.9375V19.0625H15.625C15.4525 19.0625 15.3125 19.2025 15.3125 19.375V23.125C15.3125 23.2975 15.4525 23.4375 15.625 23.4375H15.9375V24.0625H16.5625ZM15.9375 19.6875H16.5625V22.8125H15.9375V19.6875Z" fill="black"/>
<path d="M19.0625 20.3125V19.6875H19.375C19.5475 19.6875 19.6875 19.5475 19.6875 19.375V15.625C19.6875 15.4525 19.5475 15.3125 19.375 15.3125H19.0625V14.6875H18.4375V15.3125H18.125C17.9525 15.3125 17.8125 15.4525 17.8125 15.625V19.375C17.8125 19.5475 17.9525 19.6875 18.125 19.6875H18.4375V20.3125H19.0625ZM18.4375 15.9375H19.0625V19.0625H18.4375V15.9375Z" fill="black"/>
<path d="M21.5625 23.4375V22.8125H21.875C22.0475 22.8125 22.1875 22.6725 22.1875 22.5V18.75C22.1875 18.5775 22.0475 18.4375 21.875 18.4375H21.5625V17.8125H20.9375V18.4375H20.625C20.4525 18.4375 20.3125 18.5775 20.3125 18.75V22.5C20.3125 22.6725 20.4525 22.8125 20.625 22.8125H20.9375V23.4375H21.5625ZM20.9375 19.0625H21.5625V22.1875H20.9375V19.0625Z" fill="black"/>
<path d="M24.0625 21.5625V20.9375H24.375C24.5475 20.9375 24.6875 20.7975 24.6875 20.625V16.875C24.6875 16.7025 24.5475 16.5625 24.375 16.5625H24.0625V15.9375H23.4375V16.5625H23.125C22.9525 16.5625 22.8125 16.7025 22.8125 16.875V20.625C22.8125 20.7975 22.9525 20.9375 23.125 20.9375H23.4375V21.5625H24.0625ZM23.4375 17.1875H24.0625V20.3125H23.4375V17.1875Z" fill="black"/>
</svg>
