<svg width="40" height="41" viewBox="0 0 40 41" fill="none" xmlns="http://www.w3.org/2000/svg">
<rect y="0.125" width="40" height="40" rx="20" fill="white"/>
<g clip-path="url(#clip0_755_75077)">
<path fill-rule="evenodd" clip-rule="evenodd" d="M28.1348 28.2561H28.9099C29.0831 28.2561 29.2236 28.3965 29.2236 28.5698V29.4117C29.2236 29.5849 29.0831 29.7254 28.9099 29.7254H12.0939C11.9206 29.7254 11.7801 29.5849 11.7801 29.4117V28.5698C11.7801 28.3965 11.9206 28.2561 12.0939 28.2561H12.869V24.5297C12.869 24.3564 13.0094 24.2159 13.1827 24.2159H15.4104C15.5836 24.2159 15.7241 24.3564 15.7241 24.5297V28.2561H17.0062V22.2895C17.0062 22.1163 17.1466 21.9758 17.3199 21.9758H19.5475C19.7208 21.9758 19.8613 22.1163 19.8613 22.2895V28.2561H21.1424V19.9514C21.1424 19.7781 21.2829 19.6376 21.4562 19.6376H23.6848C23.8581 19.6376 23.9985 19.7781 23.9985 19.9514V28.2561H25.2796V17.8477C25.2796 17.6744 25.4201 17.5339 25.5933 17.5339H27.821C27.9943 17.5339 28.1348 17.6744 28.1348 17.8477V28.2561ZM13.4964 28.2561H15.0966V24.8434H13.4964V28.2561ZM17.6336 28.2561H19.2338V22.6032H17.6336V28.2561ZM21.7699 28.2561H23.371C23.371 26.7423 23.371 20.2651 23.371 20.2651H21.7699V28.2561ZM25.9071 28.2561H27.5073V18.1614H25.9071V28.2561ZM12.4076 29.0979H28.5961V28.8836H12.4076V29.0979ZM24.1658 14.9814C23.9944 14.8589 23.8751 14.6655 23.854 14.4394C23.8155 14.0264 24.1196 13.6598 24.5327 13.6213L25.6897 13.5136C25.8947 13.4945 26.0985 13.5602 26.2536 13.6956C26.4087 13.8308 26.5015 14.0238 26.5104 14.2295L26.5606 15.3905C26.5785 15.8049 26.2566 16.1559 25.8421 16.1739C25.6325 16.1829 25.4391 16.105 25.2968 15.9722C22.1714 19.4149 17.9808 21.9383 12.905 22.7645C12.4956 22.8311 12.109 22.5528 12.0424 22.1434C11.9758 21.7339 12.2541 21.3474 12.6635 21.2807C17.3733 20.5142 21.2613 18.1723 24.1658 14.9814ZM24.9873 15.0013C21.9561 18.4979 17.8184 21.0774 12.7643 21.9C12.6967 21.911 12.6507 21.9749 12.6617 22.0425C12.6727 22.1102 12.7366 22.1562 12.8042 22.1452C17.8968 21.3163 22.0706 18.7257 25.1346 15.2106C25.2189 15.1139 25.3536 15.0782 25.4748 15.1206C25.5959 15.163 25.679 15.275 25.6845 15.4032L25.6856 15.4283C25.6885 15.4968 25.7465 15.5499 25.815 15.547C25.8835 15.544 25.9367 15.486 25.9337 15.4176L25.8835 14.2566C25.8821 14.2226 25.8667 14.1907 25.8411 14.1683C25.8155 14.146 25.7818 14.1351 25.7479 14.1383L24.5909 14.2461C24.5226 14.2524 24.4724 14.313 24.4788 14.3812C24.4851 14.4495 24.5457 14.4997 24.6139 14.4934L24.7212 14.4834C24.8488 14.4715 24.9708 14.5384 25.0293 14.6524C25.0879 14.7663 25.0713 14.9045 24.9873 15.0013ZM16.5922 11.0539C16.8997 11.1406 17.1956 11.2632 17.4746 11.4196L18.0406 11.168C18.1592 11.1152 18.2981 11.141 18.3899 11.2328L19.23 12.073C19.3217 12.1646 19.3475 12.3033 19.295 12.4219L19.0442 12.9879C19.2008 13.2672 19.3235 13.5634 19.4102 13.8719L19.9873 14.094C20.1085 14.1406 20.1884 14.257 20.1884 14.3868V15.5752C20.1884 15.705 20.1085 15.8214 19.9873 15.868L19.41 16.0902C19.3232 16.3977 19.2 16.6936 19.0441 16.9726L19.295 17.539C19.3475 17.6576 19.3217 17.7962 19.23 17.8879L18.3899 18.7281C18.2982 18.8197 18.1595 18.8456 18.041 18.7931C18.041 18.7931 17.475 18.5424 17.4751 18.5424C17.1965 18.6988 16.8999 18.8215 16.5922 18.9081L16.37 19.4854C16.3234 19.6065 16.207 19.6865 16.0772 19.6865H14.8888C14.759 19.6865 14.6426 19.6065 14.596 19.4854C14.596 19.4854 14.3738 18.9082 14.3739 18.9082C14.0655 18.8214 13.7693 18.6981 13.4902 18.5421L12.9238 18.7931C12.8052 18.8456 12.6666 18.8197 12.5749 18.7281L11.7348 17.8879C11.643 17.7961 11.6172 17.6572 11.6699 17.5386C11.6699 17.5386 11.9215 16.9728 11.9215 16.9729C11.7651 16.6944 11.6424 16.398 11.5551 16.0904L10.9774 15.868C10.8563 15.8214 10.7764 15.705 10.7764 15.5752V14.3868C10.7764 14.257 10.8563 14.1406 10.9774 14.094C10.9774 14.094 11.555 13.8717 11.555 13.8717C11.6423 13.5634 11.7651 13.2673 11.9215 12.9882L11.6699 12.4223C11.6172 12.3036 11.643 12.1648 11.7348 12.073L12.5749 11.2328C12.6667 11.141 12.8056 11.1152 12.9242 11.168L13.4901 11.4196C13.7692 11.2631 14.0652 11.1405 14.3728 11.0539L14.5961 10.4752C14.6428 10.3542 14.7591 10.2744 14.8888 10.2744H16.0772C16.207 10.2744 16.3235 10.3544 16.3701 10.4756L16.5922 11.0539ZM16.0644 11.4295L15.8617 10.9019H15.104L14.9002 11.4299C14.863 11.5264 14.7806 11.5983 14.6801 11.6222C14.3248 11.7066 13.986 11.847 13.6746 12.0389C13.5865 12.0932 13.4772 12.1005 13.3826 12.0585L12.8662 11.8288L12.3308 12.3643L12.5604 12.8806C12.6025 12.9752 12.5952 13.0845 12.5408 13.1726C12.3488 13.4843 12.2084 13.8234 12.1228 14.18C12.0987 14.2804 12.0268 14.3625 11.9304 14.3996L11.4038 14.6022V15.3598L11.9304 15.5625C12.0267 15.5996 12.0986 15.6816 12.1228 15.7819C12.2083 16.1373 12.3486 16.4774 12.5406 16.7878C12.5951 16.876 12.6025 16.9855 12.5604 17.0802L12.3308 17.5966L12.8664 18.1322L13.383 17.9034C13.4773 17.8617 13.586 17.8689 13.6739 17.9228C13.9855 18.1137 14.3245 18.2553 14.681 18.3398C14.7818 18.3637 14.8643 18.4357 14.9015 18.5324L15.1042 19.059H15.8618L16.0644 18.5324C16.1016 18.4358 16.184 18.3637 16.2847 18.3398C16.6398 18.2554 16.9796 18.1152 17.2897 17.9234C17.3778 17.869 17.4871 17.8615 17.5818 17.9034L18.0983 18.1322L18.6342 17.5964L18.4054 17.0798C18.3636 16.9856 18.3708 16.8768 18.4247 16.7889C18.6156 16.4773 18.7573 16.1383 18.8418 15.7828C18.8657 15.6821 18.9377 15.5997 19.0343 15.5625L19.561 15.3598V14.6022L19.0343 14.3996C18.9377 14.3623 18.8656 14.2799 18.8417 14.1791C18.7573 13.8228 18.617 13.484 18.4252 13.1726C18.3709 13.0846 18.3635 12.9756 18.4054 12.881L18.6342 12.3645L18.0986 11.8288L17.5822 12.0585C17.4876 12.1005 17.3783 12.0932 17.2901 12.0389C16.9788 11.847 16.64 11.7066 16.2847 11.6222C16.184 11.5983 16.1015 11.5262 16.0644 11.4295ZM15.4824 18.0406C13.7792 18.0406 12.3916 16.6649 12.3916 14.9804C12.3916 13.2959 13.7792 11.9202 15.4824 11.9202C17.1856 11.9202 18.5732 13.2959 18.5732 14.9804C18.5732 16.6649 17.1856 18.0406 15.4824 18.0406ZM15.4824 17.4132C16.8381 17.4132 17.9457 16.3213 17.9457 14.9804C17.9457 13.6396 16.8381 12.5477 15.4824 12.5477C14.1266 12.5477 13.0191 13.6396 13.0191 14.9804C13.0191 16.3213 14.1266 17.4132 15.4824 17.4132ZM15.1686 13.3575V13.243C15.1686 13.0699 15.3092 12.9293 15.4824 12.9293C15.6555 12.9293 15.7961 13.0699 15.7961 13.243V13.3544C16.1275 13.4347 16.4308 13.6506 16.5893 14.024C16.6569 14.1834 16.5824 14.3677 16.423 14.4354C16.2636 14.503 16.0793 14.4285 16.0117 14.2691C15.8756 13.9485 15.5108 13.8873 15.2499 13.9888C15.1079 14.0441 14.9897 14.154 14.9981 14.3189V14.3197C15.0041 14.4454 15.0901 14.5144 15.1882 14.5618C15.295 14.6134 15.4186 14.6418 15.535 14.6606L15.5356 14.6607C16.0486 14.7442 16.6062 14.9823 16.6796 15.5855C16.7507 16.1663 16.2918 16.5125 15.7961 16.6131V16.7188C15.7961 16.8919 15.6555 17.0325 15.4824 17.0325C15.3092 17.0325 15.1686 16.8919 15.1686 16.7188V16.6086C14.753 16.5149 14.3986 16.237 14.2877 15.7964C14.2455 15.6285 14.3475 15.4578 14.5154 15.4156C14.6833 15.3733 14.8539 15.4753 14.8962 15.6432C14.9641 15.9132 15.244 16.0227 15.5109 16.0162H15.5115C15.6585 16.0129 15.8224 15.9779 15.943 15.8957C16.0177 15.8447 16.0699 15.7691 16.0568 15.6616L16.0567 15.6613C16.0389 15.5144 15.9347 15.4365 15.8172 15.3836C15.6976 15.3299 15.5618 15.3007 15.4353 15.2801C14.9313 15.1989 14.3996 14.9407 14.3713 14.3496C14.3488 13.8939 14.6297 13.5569 15.0224 13.4041C15.0698 13.3857 15.1187 13.3701 15.1686 13.3575Z" fill="black"/>
</g>
<defs>
<clipPath id="clip0_755_75077">
<rect width="20" height="20" fill="white" transform="translate(10 10)"/>
</clipPath>
</defs>
</svg>
